<svg width="494" height="100" viewBox="0 0 494 100" fill="none" xmlns="http://www.w3.org/2000/svg">
<rect width="494" height="100" fill="white"/>
<path d="M114.228 75.3632L126.047 25.4386H132.65L134.157 33.7526L121.564 84.7775H114.473L114.228 75.3632ZM108.156 25.4386L117.937 75.3632L117.122 84.7775H109.216L96.0518 25.4386H108.156ZM144.55 75.1594L154.209 25.4386H166.313L153.19 84.7775H145.284L144.55 75.1594ZM136.358 25.4386L148.259 75.567L147.933 84.7775H140.841L128.167 33.7118L129.797 25.4386H136.358Z" fill="black"/>
<path d="M194.638 74.8334V55.1896C194.638 53.7767 194.407 52.5677 193.945 51.5624C193.483 50.53 192.763 49.7284 191.785 49.1579C190.834 48.5873 189.598 48.302 188.076 48.302C186.772 48.302 185.644 48.533 184.693 48.9949C183.742 49.4296 183.009 50.0681 182.493 50.9103C181.976 51.7254 181.718 52.69 181.718 53.8039H169.981C169.981 51.9292 170.416 50.1496 171.285 48.465C172.155 46.7805 173.418 45.2998 175.075 44.0228C176.733 42.7186 178.702 41.6998 180.985 40.9662C183.294 40.2326 185.875 39.8658 188.728 39.8658C192.152 39.8658 195.195 40.4364 197.857 41.5775C200.52 42.7186 202.612 44.4303 204.133 46.7126C205.682 48.9949 206.456 51.8477 206.456 55.2711V74.1405C206.456 76.5587 206.606 78.5421 206.905 80.0907C207.204 81.6123 207.638 82.9436 208.209 84.0847V84.7775H196.349C195.779 83.5821 195.344 82.0877 195.045 80.2945C194.773 78.4741 194.638 76.6538 194.638 74.8334ZM196.186 57.9201L196.268 64.5632H189.706C188.158 64.5632 186.813 64.7398 185.672 65.093C184.53 65.4462 183.593 65.9488 182.859 66.6009C182.126 67.2258 181.582 67.9594 181.229 68.8017C180.903 69.6439 180.74 70.5677 180.74 71.573C180.74 72.5783 180.971 73.4885 181.433 74.3036C181.895 75.0915 182.561 75.7164 183.43 76.1783C184.299 76.613 185.318 76.8304 186.487 76.8304C188.253 76.8304 189.788 76.4772 191.092 75.7707C192.396 75.0643 193.401 74.1949 194.108 73.1624C194.841 72.13 195.222 71.1519 195.249 70.2281L198.346 75.2002C197.912 76.3141 197.314 77.4689 196.553 78.6643C195.819 79.8598 194.882 80.9873 193.741 82.047C192.6 83.0794 191.228 83.9353 189.625 84.6145C188.022 85.2666 186.12 85.5926 183.919 85.5926C181.121 85.5926 178.58 85.0357 176.298 83.9217C174.043 82.7806 172.25 81.2183 170.918 79.2349C169.614 77.2243 168.962 74.9421 168.962 72.3881C168.962 70.0787 169.397 68.0273 170.266 66.2341C171.136 64.4409 172.413 62.933 174.097 61.7103C175.809 60.4605 177.942 59.5232 180.496 58.8983C183.05 58.2462 186.011 57.9201 189.38 57.9201H196.186Z" fill="black"/>
<path d="M237.104 40.6809V48.9949H211.429V40.6809H237.104ZM217.786 29.7994H229.524V71.4915C229.524 72.7685 229.687 73.7466 230.013 74.4258C230.366 75.1051 230.882 75.5805 231.561 75.8522C232.241 76.0968 233.096 76.219 234.129 76.219C234.863 76.219 235.515 76.1919 236.085 76.1375C236.683 76.056 237.186 75.9745 237.593 75.893L237.634 84.533C236.629 84.8591 235.542 85.1172 234.373 85.3074C233.205 85.4975 231.915 85.5926 230.502 85.5926C227.921 85.5926 225.666 85.1715 223.736 84.3292C221.835 83.4598 220.367 82.0741 219.335 80.1723C218.302 78.2704 217.786 75.7707 217.786 72.6734V29.7994Z" fill="black"/>
<path d="M264.084 85.5926C260.66 85.5926 257.59 85.0492 254.873 83.9624C252.156 82.8485 249.847 81.3134 247.945 79.3572C246.07 77.4009 244.63 75.1322 243.625 72.5511C242.62 69.9428 242.117 67.1715 242.117 64.2371V62.6069C242.117 59.2651 242.592 56.2084 243.543 53.4371C244.494 50.6658 245.853 48.2613 247.619 46.2235C249.412 44.1858 251.586 42.6235 254.14 41.5367C256.693 40.4228 259.573 39.8658 262.78 39.8658C265.904 39.8658 268.675 40.382 271.094 41.4145C273.512 42.4469 275.536 43.9141 277.166 45.816C278.823 47.7179 280.073 50.0001 280.915 52.6628C281.758 55.2983 282.179 58.2326 282.179 61.4658V66.3564H247.13V58.5315H270.645V57.6349C270.645 56.0047 270.346 54.5511 269.749 53.2741C269.178 51.97 268.309 50.9375 267.14 50.1767C265.972 49.416 264.478 49.0356 262.657 49.0356C261.109 49.0356 259.777 49.3752 258.663 50.0545C257.549 50.7337 256.639 51.6847 255.933 52.9073C255.253 54.13 254.737 55.57 254.384 57.2273C254.058 58.8575 253.895 60.6507 253.895 62.6069V64.2371C253.895 66.0032 254.14 67.6334 254.629 69.1277C255.145 70.6221 255.865 71.9126 256.789 72.9994C257.74 74.0862 258.881 74.9285 260.212 75.5262C261.57 76.1239 263.106 76.4228 264.817 76.4228C266.937 76.4228 268.906 76.0153 270.727 75.2002C272.574 74.3579 274.164 73.0945 275.495 71.41L281.201 77.6047C280.277 78.936 279.014 80.213 277.41 81.4357C275.835 82.6583 273.933 83.6636 271.705 84.4515C269.477 85.2123 266.937 85.5926 264.084 85.5926Z" fill="black"/>
<path d="M300.6 50.299V84.7775H288.863V40.6809H299.907L300.6 50.299ZM313.886 40.3956L313.682 51.2771C313.112 51.1956 312.419 51.1277 311.604 51.0733C310.816 50.9918 310.096 50.9511 309.444 50.9511C307.786 50.9511 306.346 51.1684 305.124 51.6032C303.928 52.0107 302.923 52.622 302.108 53.4371C301.32 54.2522 300.722 55.2439 300.315 56.4122C299.934 57.5805 299.717 58.9118 299.663 60.4062L297.299 59.6726C297.299 56.8198 297.584 54.1979 298.155 51.8069C298.725 49.3888 299.554 47.2832 300.641 45.4899C301.755 43.6967 303.113 42.3111 304.716 41.333C306.319 40.3548 308.153 39.8658 310.218 39.8658C310.87 39.8658 311.536 39.9201 312.215 40.0288C312.894 40.1103 313.451 40.2326 313.886 40.3956Z" fill="black"/>
<path d="M334.467 75.3632L346.286 25.4386H352.888L354.396 33.7526L341.803 84.7775H334.712L334.467 75.3632ZM328.395 25.4386L338.176 75.3632L337.361 84.7775H329.454L316.291 25.4386H328.395ZM364.789 75.1594L374.448 25.4386H386.552L373.429 84.7775H365.522L364.789 75.1594ZM356.597 25.4386L368.497 75.567L368.171 84.7775H361.08L348.405 33.7118L350.035 25.4386H356.597Z" fill="black"/>
<path d="M414.876 74.8334V55.1896C414.876 53.7767 414.645 52.5677 414.184 51.5624C413.722 50.53 413.002 49.7284 412.024 49.1579C411.073 48.5873 409.836 48.302 408.315 48.302C407.011 48.302 405.883 48.533 404.932 48.9949C403.981 49.4296 403.248 50.0681 402.731 50.9103C402.215 51.7254 401.957 52.69 401.957 53.8039H390.22C390.22 51.9292 390.654 50.1496 391.524 48.465C392.393 46.7805 393.657 45.2998 395.314 44.0228C396.971 42.7186 398.941 41.6998 401.223 40.9662C403.533 40.2326 406.114 39.8658 408.967 39.8658C412.39 39.8658 415.433 40.4364 418.096 41.5775C420.759 42.7186 422.851 44.4303 424.372 46.7126C425.921 48.9949 426.695 51.8477 426.695 55.2711V74.1405C426.695 76.5587 426.845 78.5421 427.144 80.0907C427.442 81.6123 427.877 82.9436 428.448 84.0847V84.7775H416.588C416.017 83.5821 415.583 82.0877 415.284 80.2945C415.012 78.4741 414.876 76.6538 414.876 74.8334ZM416.425 57.9201L416.507 64.5632H409.945C408.396 64.5632 407.051 64.7398 405.91 65.093C404.769 65.4462 403.832 65.9488 403.098 66.6009C402.365 67.2258 401.821 67.9594 401.468 68.8017C401.142 69.6439 400.979 70.5677 400.979 71.573C400.979 72.5783 401.21 73.4885 401.672 74.3036C402.134 75.0915 402.799 75.7164 403.669 76.1783C404.538 76.613 405.557 76.8304 406.725 76.8304C408.491 76.8304 410.027 76.4772 411.331 75.7707C412.635 75.0643 413.64 74.1949 414.347 73.1624C415.08 72.13 415.46 71.1519 415.488 70.2281L418.585 75.2002C418.15 76.3141 417.553 77.4689 416.792 78.6643C416.058 79.8598 415.121 80.9873 413.98 82.047C412.839 83.0794 411.467 83.9353 409.864 84.6145C408.26 85.2666 406.359 85.5926 404.158 85.5926C401.359 85.5926 398.819 85.0357 396.537 83.9217C394.282 82.7806 392.488 81.2183 391.157 79.2349C389.853 77.2243 389.201 74.9421 389.201 72.3881C389.201 70.0787 389.636 68.0273 390.505 66.2341C391.374 64.4409 392.651 62.933 394.336 61.7103C396.048 60.4605 398.18 59.5232 400.734 58.8983C403.288 58.2462 406.25 57.9201 409.619 57.9201H416.425Z" fill="black"/>
<path d="M470.833 75.6077V84.7775H437.332V75.6077H470.833ZM470.181 47.4462L442.06 84.7775H434.194V77.8085L462.193 40.6809H470.181V47.4462ZM466.024 40.6809V49.8915H434.846V40.6809H466.024Z" fill="black"/>
<path d="M490.599 40.6809V84.7775H478.821V40.6809H490.599ZM478.087 29.188C478.087 27.4763 478.685 26.0635 479.88 24.9495C481.076 23.8356 482.679 23.2786 484.689 23.2786C486.673 23.2786 488.262 23.8356 489.458 24.9495C490.68 26.0635 491.292 27.4763 491.292 29.188C491.292 30.8997 490.68 32.3126 489.458 33.4265C488.262 34.5405 486.673 35.0975 484.689 35.0975C482.679 35.0975 481.076 34.5405 479.88 33.4265C478.685 32.3126 478.087 30.8997 478.087 29.188Z" fill="black"/>
<path fill-rule="evenodd" clip-rule="evenodd" d="M67.7416 66.8434L39.7384 98.6883L11.5128 66.6281L11.5287 66.6281C4.99317 59.6913 0.987905 50.344 0.987906 40.0612C0.987907 18.6604 18.3366 1.31171 39.7374 1.31171C61.1381 1.31171 78.4868 18.6604 78.4868 40.0612C78.4868 50.4507 74.398 59.8852 67.7416 66.8434Z" fill="#007AC1"/>
<path fill-rule="evenodd" clip-rule="evenodd" d="M24.4024 33.6602L39.7368 13.4043L55.2301 33.8415C58.3838 37.4547 60.2942 42.1811 60.2942 47.3537C60.2942 58.7075 51.09 67.9116 39.7362 67.9116C28.3823 67.9116 19.1782 58.7075 19.1782 47.3537C19.1782 42.0941 21.1534 37.2959 24.4024 33.6602Z" fill="white"/>
<path fill-rule="evenodd" clip-rule="evenodd" d="M52.7486 45.7137C54.0114 45.7137 55.0352 46.7374 55.0352 48.0002C55.0352 49.7715 54.6863 51.5253 54.0085 53.1617C53.3307 54.7981 52.3372 56.285 51.0847 57.5374C49.8323 58.7898 48.3454 59.7833 46.709 60.4611C45.0727 61.139 43.3188 61.4878 41.5476 61.4878C40.2847 61.4878 39.261 60.4641 39.261 59.2013C39.261 57.9384 40.2847 56.9147 41.5476 56.9147C42.7182 56.9147 43.8774 56.6841 44.959 56.2361C46.0405 55.7881 47.0233 55.1315 47.8511 54.3037C48.6788 53.4759 49.3355 52.4932 49.7835 51.4117C50.2315 50.3301 50.462 49.1709 50.462 48.0002C50.462 46.7374 51.4858 45.7137 52.7486 45.7137Z" fill="#007AC1"/>
</svg>
